<?xml version="1.0" encoding="UTF-8"?>
<svg id="Layer_2" data-name="Layer 2" xmlns="http://www.w3.org/2000/svg" xmlns:xlink="http://www.w3.org/1999/xlink" viewBox="0 0 62.88 62.69">
  <defs>
    <clipPath id="clippath">
      <rect y="38.46" width="19.34" height="24.23" fill="none"/>
    </clipPath>
    <clipPath id="clippath-1">
      <rect x="43.58" y="38.46" width="19.31" height="24.23" fill="none"/>
    </clipPath>
    <clipPath id="clippath-2">
      <rect x="11.89" width="39.14" height="36.6" fill="none"/>
    </clipPath>
  </defs>
  <g id="Layer_1-2" data-name="Layer 1">
    <g>
      <path d="M5.22,31.19c0,.41.04.82.12,1.22.08.4.2.79.36,1.17.16.38.35.74.58,1.08s.49.66.78.95.61.55.95.78c.34.23.7.42,1.08.58.38.16.77.28,1.17.36.4.08.81.12,1.22.12s.82-.04,1.22-.12c.4-.08.8-.2,1.18-.36s.74-.35,1.08-.58.66-.49.95-.78.55-.6.78-.95c.23-.34.42-.7.58-1.08.16-.38.27-.77.35-1.17.08-.4.12-.81.12-1.22s-.04-.82-.12-1.22c-.08-.4-.2-.8-.35-1.18-.16-.38-.35-.74-.58-1.08-.23-.34-.49-.66-.78-.95s-.61-.55-.95-.78c-.34-.23-.7-.42-1.08-.58-.38-.16-.77-.27-1.18-.35-.4-.08-.81-.12-1.22-.12s-.82.04-1.22.12c-.4.08-.79.2-1.17.35-.38.16-.74.35-1.08.58-.34.23-.66.49-.95.78s-.55.61-.78.95-.42.7-.58,1.08-.28.77-.36,1.18c-.08.4-.12.81-.12,1.22ZM11.48,27.02c.27,0,.55.03.81.08.27.05.53.13.79.24.25.11.49.23.72.39.23.15.44.32.63.52.2.19.37.4.52.63.15.23.28.47.39.72.11.25.19.51.24.78.05.27.08.54.08.81s-.03.55-.08.82c-.05.27-.13.53-.24.78s-.23.5-.39.72c-.15.23-.32.44-.52.63-.19.19-.4.37-.63.52-.23.15-.47.28-.72.39-.25.11-.52.19-.79.24-.27.05-.54.08-.81.08s-.55-.03-.82-.08c-.27-.05-.53-.13-.78-.24-.25-.1-.5-.23-.72-.39-.23-.15-.44-.32-.63-.52s-.37-.4-.52-.63c-.15-.23-.28-.47-.39-.72-.11-.25-.19-.51-.24-.78-.05-.27-.08-.54-.08-.82s.03-.55.08-.81c.05-.27.13-.53.24-.78.1-.25.23-.5.39-.72.15-.23.32-.44.52-.63.19-.2.4-.37.63-.52.23-.15.47-.28.72-.39.25-.11.51-.18.78-.24s.54-.08.82-.08Z" fill="#cb9a28"/>
      <path d="M17.74,62.5c.14,0,.27-.03.4-.08.13-.05.24-.13.34-.23.1-.1.17-.21.23-.34.05-.13.08-.26.08-.4v-1.13c2.38-.39,4.18-2.09,4.18-4.09v-1.04c0-.14-.03-.27-.08-.4-.05-.13-.13-.24-.23-.34s-.21-.17-.34-.23c-.13-.05-.26-.08-.4-.08s-.27.03-.4.08c-.13.05-.24.13-.34.23-.1.09-.17.21-.23.34-.05.13-.08.26-.08.4v1.04c0,.88-.88,1.66-2.09,1.95v-11.34c0-.14-.03-.27-.08-.4-.05-.13-.13-.24-.23-.34s-.21-.17-.34-.23c-.13-.05-.26-.08-.4-.08s-.27.03-.4.08c-.13.05-.24.13-.34.23s-.17.21-.23.34c-.05.13-.08.26-.08.4v14.61c0,.14.03.27.08.4.05.13.13.24.23.34.1.09.21.17.34.23.13.05.26.08.4.08Z" fill="#cb9a28"/>
      <g clip-path="url(#clippath)">
        <path d="M7.3,40.58h8.35c.61,0,1.21.08,1.79.25.13.04.27.05.41.03.13-.01.27-.05.39-.12.12-.07.23-.16.31-.26.09-.11.15-.23.19-.36.04-.13.05-.27.03-.41-.01-.14-.05-.27-.12-.39-.07-.12-.15-.23-.26-.31s-.23-.15-.36-.19c-.78-.22-1.57-.33-2.38-.33H7.3C3.28,38.5,0,41.3,0,44.76v11.48C0,58.25,1.79,59.94,4.18,60.32v1.13c0,.14.03.27.08.4.05.13.13.24.23.34.1.09.21.17.34.23.13.05.26.08.4.08s.27-.03.4-.08c.13-.05.24-.13.34-.23.1-.1.17-.21.23-.34.05-.13.08-.26.08-.4v-14.61c0-.14-.03-.27-.08-.4-.05-.13-.13-.24-.23-.34s-.21-.17-.34-.23c-.13-.05-.26-.08-.4-.08s-.27.03-.4.08c-.13.05-.24.13-.34.23-.09.1-.17.21-.23.34-.05.13-.08.26-.08.4v11.34c-1.2-.29-2.09-1.04-2.09-1.95v-11.48c0-2.3,2.34-4.17,5.22-4.17Z" fill="#cb9a28"/>
      </g>
      <path d="M51.13,37.45c.41,0,.82-.04,1.22-.12.4-.08.8-.2,1.18-.36s.74-.35,1.08-.58.66-.49.95-.78.55-.6.78-.95.42-.7.58-1.08c.16-.38.28-.77.36-1.17.08-.4.12-.81.12-1.22s-.04-.82-.12-1.22c-.08-.4-.2-.8-.36-1.18s-.35-.74-.58-1.08-.49-.66-.78-.95-.61-.55-.95-.78c-.34-.23-.7-.42-1.08-.58-.38-.16-.77-.27-1.18-.35-.4-.08-.81-.12-1.22-.12s-.82.04-1.22.12c-.4.08-.79.2-1.17.35-.38.16-.74.35-1.08.58-.34.23-.66.49-.95.78s-.55.61-.78.95-.42.7-.58,1.08-.28.77-.36,1.18c-.08.4-.12.81-.12,1.22s.04.82.12,1.22c.08.4.2.79.36,1.17.16.38.35.74.58,1.08s.49.66.78.95.61.55.95.78c.34.23.7.42,1.08.58s.77.28,1.17.36c.4.08.81.12,1.22.12ZM51.13,27.02c.27,0,.55.03.82.08.27.05.53.13.78.24.25.11.49.23.72.39s.44.32.63.52.36.4.52.63c.15.23.28.47.39.72.11.25.19.51.24.78.05.27.08.54.08.81s-.03.55-.08.82c-.05.27-.13.53-.24.78s-.23.5-.39.72c-.15.23-.32.44-.52.63-.2.19-.4.37-.63.52-.23.15-.47.28-.72.39-.25.11-.52.19-.78.24-.27.05-.54.08-.82.08s-.55-.03-.82-.08c-.27-.05-.53-.13-.78-.24-.25-.1-.49-.23-.72-.39-.23-.15-.44-.32-.63-.52-.19-.19-.36-.4-.52-.63-.15-.23-.28-.47-.39-.72s-.19-.51-.24-.78c-.05-.27-.08-.54-.08-.82s.03-.55.08-.81c.05-.27.13-.53.24-.78.11-.25.23-.5.39-.72.15-.23.32-.44.52-.63s.4-.37.63-.52.47-.28.72-.39c.25-.11.51-.18.78-.24s.54-.08.82-.08Z" fill="#cb9a28"/>
      <path d="M44.87,62.5c.14,0,.27-.03.4-.08.13-.05.24-.13.34-.23.1-.1.17-.21.23-.34.05-.13.08-.26.08-.4v-14.61c0-.14-.03-.27-.08-.4-.05-.13-.13-.24-.23-.34s-.21-.17-.34-.23c-.13-.05-.26-.08-.4-.08s-.27.03-.4.08c-.13.05-.24.13-.34.23s-.17.21-.23.34c-.05.13-.08.26-.08.4v11.34c-1.2-.29-2.09-1.04-2.09-1.95v-1.04c0-.14-.03-.27-.08-.4-.05-.13-.13-.24-.23-.34s-.21-.17-.34-.23c-.13-.05-.26-.08-.4-.08s-.27.03-.4.08c-.13.05-.24.13-.34.23-.1.09-.17.21-.23.34-.05.13-.08.26-.08.4v1.04c0,2.01,1.79,3.7,4.18,4.09v1.13c0,.14.03.27.08.4.05.13.13.24.23.34.1.09.21.17.34.23.13.05.26.08.4.08Z" fill="#cb9a28"/>
      <g clip-path="url(#clippath-1)">
        <path d="M55.3,38.5h-8.34c-.81,0-1.6.11-2.38.33-.13.04-.25.1-.36.19-.11.09-.2.19-.26.31-.07.12-.11.25-.12.39s0,.27.04.41c.04.13.1.25.19.36.08.11.19.2.31.26.12.07.25.11.39.12.14.02.27,0,.41-.03.59-.17,1.18-.25,1.79-.25h8.34c2.88,0,5.22,1.87,5.22,4.17v11.48c0,.88-.88,1.66-2.09,1.95v-11.34c0-.14-.03-.27-.08-.4-.05-.13-.13-.24-.23-.34s-.21-.17-.34-.23c-.13-.05-.26-.08-.4-.08s-.27.03-.4.08c-.13.05-.24.13-.34.23s-.17.21-.23.34c-.05.13-.08.26-.08.4v14.61c0,.14.03.27.08.4.05.13.13.24.23.34.1.09.21.17.34.23.13.05.26.08.4.08s.27-.03.4-.08c.13-.05.24-.13.34-.23.1-.1.17-.21.23-.34.05-.13.08-.26.08-.4v-1.13c2.38-.39,4.18-2.09,4.18-4.09v-11.48c0-3.46-3.28-6.26-7.31-6.26Z" fill="#cb9a28"/>
      </g>
      <path d="M37.56,29.1c0-.41-.04-.82-.12-1.22-.08-.4-.2-.8-.36-1.18s-.35-.74-.58-1.08c-.23-.34-.49-.66-.78-.95-.29-.29-.6-.55-.95-.78s-.7-.42-1.08-.58c-.38-.16-.77-.28-1.17-.36s-.81-.12-1.22-.12-.82.04-1.22.12-.79.2-1.18.36c-.38.16-.74.35-1.08.58s-.66.49-.95.78c-.29.29-.55.61-.78.95-.23.34-.42.7-.58,1.08-.16.38-.28.77-.36,1.18-.08.4-.12.81-.12,1.22s.04.82.12,1.22c.08.4.2.79.36,1.17.16.38.35.74.58,1.08.23.34.49.66.78.95.29.29.61.55.95.78s.7.42,1.08.58c.38.16.77.28,1.18.36s.81.12,1.22.12.82-.04,1.22-.12.79-.2,1.17-.36c.38-.16.74-.35,1.08-.58s.66-.49.95-.78c.29-.29.55-.61.78-.95.23-.34.42-.7.58-1.08s.28-.77.36-1.17c.08-.4.12-.81.12-1.22ZM27.13,29.1c0-.27.03-.55.08-.82.05-.27.13-.53.24-.78.11-.25.23-.49.39-.72s.33-.44.52-.63c.19-.19.4-.36.63-.52.23-.15.47-.28.72-.39.25-.11.51-.19.78-.24.27-.05.54-.08.81-.08s.55.03.82.08c.27.05.53.13.78.24.25.11.5.23.72.39.23.15.44.32.63.52.19.2.37.4.52.63.15.23.28.47.39.72.1.25.18.52.24.78.05.27.08.54.08.82s-.03.55-.08.82c-.05.27-.13.53-.24.78-.11.25-.24.49-.39.72-.15.23-.33.44-.52.63-.19.19-.4.36-.63.52-.23.15-.47.28-.72.39-.25.11-.51.19-.78.24-.27.05-.54.08-.82.08s-.54-.03-.81-.08c-.27-.05-.53-.13-.78-.24-.25-.11-.5-.23-.72-.39-.23-.15-.44-.32-.63-.52-.19-.2-.37-.4-.52-.63s-.28-.47-.39-.72c-.11-.25-.18-.51-.24-.78s-.08-.54-.08-.82Z" fill="#cb9a28"/>
      <path d="M37.56,62.5c.14,0,.27-.03.4-.08.13-.05.24-.13.34-.23.1-.1.17-.21.23-.34.05-.13.08-.26.08-.4v-9.39h1.04c.42,0,.82-.08,1.2-.24.39-.16.72-.39,1.02-.68s.52-.63.68-1.02c.16-.39.24-.78.24-1.2v-6.26c0-3.46-3.28-6.26-7.3-6.26h-8.35c-4.03,0-7.3,2.81-7.3,6.26v6.26c0,.42.08.81.24,1.2.16.38.39.72.68,1.02s.63.52,1.01.68c.39.16.78.24,1.2.24h1.04v9.39c0,.14.03.27.08.4.05.13.13.24.23.34.1.09.21.17.34.23.13.05.26.08.4.08s.27-.03.4-.08c.13-.05.24-.13.34-.23s.17-.21.23-.34c.05-.13.08-.26.08-.4v-9.39h10.43v9.39c0,.14.03.27.08.4.05.13.13.24.23.34.1.09.21.17.34.23.13.05.26.08.4.08ZM21.91,42.67c0-2.3,2.34-4.17,5.22-4.17h8.35c2.88,0,5.22,1.87,5.22,4.17v6.26c0,.14-.03.27-.08.4-.05.13-.13.24-.23.34s-.21.17-.34.23c-.13.05-.26.08-.4.08h-5l-8.57-3.81v-.25l8.24.91h3.24c.14,0,.27-.03.4-.08.13-.05.24-.13.34-.23s.17-.21.23-.34c.05-.13.08-.26.08-.4v-2.09c0-.14-.03-.27-.08-.4-.05-.13-.13-.24-.23-.34s-.21-.17-.34-.23-.26-.08-.4-.08-.27.03-.4.08-.24.13-.34.23c-.09.1-.17.21-.23.34-.05.13-.08.26-.08.4v1.04h-2.02l-8.41-.91v-.11c0-.14-.03-.27-.08-.4-.05-.13-.13-.24-.23-.34-.09-.1-.21-.17-.34-.23-.13-.05-.26-.08-.4-.08s-.27.03-.4.08c-.13.05-.24.13-.34.23s-.17.21-.23.34c-.05.13-.08.26-.08.4v3.13s0,.08,0,.12c-.01.08-.01.17,0,.25.03.06.06.12.11.17.03.06.06.11.1.16.07.06.13.11.21.16,0,0,.07.07.11.07l4.9,2.18h-6.48c-.14,0-.27-.03-.4-.08-.13-.05-.24-.13-.34-.23-.1-.1-.17-.21-.23-.34-.05-.13-.08-.26-.08-.4v-6.24Z" fill="#cb9a28"/>
      <path d="M30.26,58.32v3.13c0,.14.03.27.08.4.05.13.13.24.23.34.1.09.21.17.34.23.13.05.26.08.4.08s.27-.03.4-.08c.13-.05.24-.13.34-.23.1-.1.17-.21.23-.34.05-.13.08-.26.08-.4v-3.13c0-.14-.03-.27-.08-.4-.05-.13-.13-.24-.23-.34-.1-.09-.21-.17-.34-.23-.13-.05-.26-.08-.4-.08s-.27.03-.4.08c-.13.05-.24.13-.34.23-.1.1-.17.21-.23.34-.05.13-.08.26-.08.4Z" fill="#cb9a28"/>
      <g clip-path="url(#clippath-2)">
        <path d="M49.98,14.79c.23-.29.29-.62.17-.97-.11-.35-.35-.58-.71-.68l-10.69-3.01-.44-.31L32.17.58c-.09-.15-.22-.26-.37-.34s-.32-.12-.49-.12-.33.04-.49.12c-.16.08-.28.19-.37.34l-6.16,9.24-.44.31-10.69,3c-.17.05-.32.13-.44.25-.13.12-.22.27-.27.43-.05.16-.06.33-.03.51.03.17.1.33.21.47l6.88,8.7.17.51-.45,11.09c-.01.37.13.67.43.89.18.13.39.2.62.2.12,0,.25-.02.36-.06l2.69-1.04c.13-.04.26-.11.37-.2.11-.09.2-.2.26-.33.07-.13.1-.27.11-.41,0-.15-.01-.28-.07-.42s-.12-.25-.22-.36c-.1-.1-.22-.18-.35-.24-.13-.06-.27-.08-.42-.08s-.28.03-.41.09l-1.22.45.39-9.72c.02-.12.02-.24,0-.36l-.28-.87c-.05-.12-.11-.22-.18-.32l-6.06-7.58,9.39-2.63c.12-.03.23-.08.33-.16l.74-.53c.1-.07.19-.16.25-.27l5.35-8.09,5.4,8.09c.07.11.15.2.25.27l.74.53c.1.08.21.13.33.17l9.39,2.63-6.02,7.63c-.08.09-.14.2-.18.32l-.28.86c-.01.12-.01.24,0,.36l.4,9.71-1.22-.45c-.13-.05-.26-.07-.4-.07-.14,0-.27.04-.4.09-.12.05-.24.13-.33.24s-.16.22-.21.35-.07.26-.06.4c0,.14.04.27.09.39.05.13.13.24.24.33.1.09.21.17.35.21l2.69,1.04c.35.13.68.08.98-.14.3-.22.44-.51.43-.88l-.54-11.14.17-.51,6.88-8.7Z" fill="#cb9a28"/>
      </g>
    </g>
  </g>
</svg>